<?xml version="1.0" encoding="UTF-8"?><svg id="Camada_2" xmlns="http://www.w3.org/2000/svg" viewBox="0 0 937.93 419.81"><defs><style>.cls-1{fill:#f40000;}.cls-1,.cls-2,.cls-3{stroke-width:0px;}.cls-2{fill:#003f72;}.cls-3{fill:#134374;}</style></defs><g id="Camada_2-2"><path class="cls-2" d="M2.1,175.28h40.55l23.84,68.17,23.42-68.17h40.23l-46.64,142.23h-34.24L2.1,175.28Z"/><path class="cls-2" d="M139.39,302.28v-111.66c0-3.22,1.61-6.58,4.83-10.08,3.22-3.5,6.41-5.25,9.56-5.25h74.79c3.15,0,6.36,1.75,9.61,5.25,3.26,3.5,4.88,6.86,4.88,10.08v111.66c0,3.22-1.63,6.57-4.88,10.03-3.26,3.47-6.46,5.2-9.61,5.2h-74.79c-3.15,0-6.34-1.73-9.56-5.2-3.22-3.47-4.83-6.81-4.83-10.03ZM176.16,278.75c0,3.57,1.58,6.16,4.73,7.77,3.15,1.61,6.65,2.42,10.5,2.42,2.24,0,4.39-.26,6.46-.79,2.06-.53,3.97-1.61,5.72-3.26,1.75-1.64,2.63-3.69,2.63-6.14v-64.71c0-2.45-.88-4.48-2.63-6.09-1.75-1.61-3.66-2.68-5.72-3.2-2.07-.53-4.22-.79-6.46-.79-3.92,0-7.44.79-10.56,2.36-3.12,1.58-4.67,4.15-4.67,7.72v64.71Z"/><path class="cls-2" d="M258.93,317.51v-142.23h65.97l18.49,32.98h-48.53v24.27h37.82v30.57h-37.82v23.42h47.69v30.99h-83.61Z"/><path class="cls-2" d="M427.63,317.51l32.35-118.49-15.13-23.74h76.37l38.55,142.23h-35.71l-8.4-29.73h-43.91l-8.4,29.73h-35.71ZM481.2,252.8h25l-12.5-46.11-12.5,46.11Z"/><path class="cls-2" d="M568.07,203.75l14.39-28.47h52.73v106.72h36.34v35.5h-77.84v-113.76h-25.63Z"/><path class="cls-2" d="M680.57,175.28h112.92l15.97,26.47h-44.96v115.76h-37.08v-116.18h-30.04l-16.81-26.05Z"/><path class="cls-2" d="M825.32,302.28v-111.66c0-3.22,1.61-6.58,4.83-10.08,3.22-3.5,6.41-5.25,9.56-5.25h74.79c3.15,0,6.36,1.75,9.61,5.25,3.26,3.5,4.88,6.86,4.88,10.08v111.66c0,3.22-1.63,6.57-4.88,10.03-3.26,3.47-6.46,5.2-9.61,5.2h-74.79c-3.15,0-6.34-1.73-9.56-5.2-3.22-3.47-4.83-6.81-4.83-10.03ZM862.09,278.75c0,3.57,1.58,6.16,4.73,7.77,3.15,1.61,6.65,2.42,10.5,2.42,2.24,0,4.39-.26,6.46-.79,2.06-.53,3.97-1.61,5.72-3.26,1.75-1.64,2.63-3.69,2.63-6.14v-64.71c0-2.45-.88-4.48-2.63-6.09-1.75-1.61-3.66-2.68-5.72-3.2-2.07-.53-4.22-.79-6.46-.79-3.92,0-7.44.79-10.56,2.36-3.12,1.58-4.67,4.15-4.67,7.72v64.71Z"/><path id="Logosimbolo" class="cls-1" d="M531.02,0l-46.46,46.46h-.12l-4.77-25.29,7.77-4.93h-31.35l-2.28,6.63h-9.42l-1.9,11.23,4.58-2.97h5.74l-3.27,15.1L403.46.17l-142.59,141.91c20.27,1.01,33.11-11.83,33.11-11.83l98.49-98.83,10.64,10.64-99.94,100.02c15.88,0,30.07-9.55,30.07-9.55l80.33-80.01,10.64,10.64-79.15,78.91c17.57,0,31.76-10.9,31.76-10.9l58.18-57.22,10.3,10.3-58.68,57.82c16.56-1.27,31.54-10.22,31.54-10.22l37.17-36.02-21.47,46.24h65.89l-20.77-45.7,36.61,35.48s14.98,8.95,31.54,10.22l-59.26-58.4,10.3-10.3,58.76,57.8s14.19,10.9,31.76,10.9l-79.73-79.49,10.64-10.64,80.91,80.58s14.19,9.55,30.07,9.55l-100.52-100.6,10.74-10.74s79.4,79.4,95.79,95.79c16.39,16.39,36.66,15.71,36.66,15.71L531.02,0Z"/><path class="cls-3" d="M137.09,352.83c9.19,0,14.68,1.79,18.98,5.75,3.31,3.04,5.88,7.67,5.88,14.35,0,7.54-3.57,14.15-9.12,17.98-5.29,3.7-10.38,4.89-19.31,4.89h-16.93v-2.91c6.08-.4,6.41-.59,6.41-6.21v-24.66c0-5.55-.46-5.95-6.41-6.28v-2.91h20.5ZM129.75,385.49c0,4.69,1.72,6.94,7.74,6.94,12.3,0,16.93-8.46,16.93-18.45,0-6.15-2.31-11.97-7.01-14.94-3.24-2.25-6.21-2.98-11.04-2.98-3.9,0-5.22.53-5.69,1.19-.59.66-.93,1.46-.93,3.44v24.79Z"/><path class="cls-3" d="M195.86,390.12c-4.89,5.35-10.05,6.48-12.63,6.48-8.46,0-14.02-6.88-14.02-15.54,0-4.63,1.79-8.53,4.36-11.44,3.11-3.44,6.74-5.03,10.84-5.03,6.94,0,11.7,5.55,11.7,12.1-.07,1.52-.2,2.25-1.46,2.45-3.24.53-11.37.86-19.31,1.12.4,7.67,5.49,11.04,10.12,11.04,3.17,0,6.41-1.39,8.93-3.5l1.45,2.31ZM183.03,367.84c-3.57,0-6.74,3.24-7.34,8.79,3.57,0,8-.07,11.97-.2,1.52-.07,1.85-.33,1.85-1.45,0-3.44-2.58-7.14-6.48-7.14Z"/><path class="cls-3" d="M220.78,374.25c-1.45-4.56-3.64-6.68-7.01-6.68-2.71,0-4.76,1.45-4.76,4.17,0,2.51,1.92,3.83,6.41,5.55,5.95,2.25,9.39,4.63,9.39,9.59,0,6.15-5.88,9.72-12.23,9.72-3.57,0-7.07-1.12-8.53-1.92-.53-1.65-1.39-6.88-1.52-8.4l2.91-.66c1.59,5.02,4.43,7.87,8.4,7.87,2.98,0,5.09-1.59,5.09-4.36s-1.92-4.36-5.82-5.88c-5.42-2.12-9.52-4.36-9.52-9.59s4.03-9.06,11.31-9.06c3.11,0,5.82.59,7.27.93.53,2.45,1.19,6.68,1.46,8l-2.84.73Z"/><path class="cls-3" d="M230.83,395.81v-2.71c4.5-.4,4.96-.73,4.96-5.36v-13.02c0-4.17-.07-4.56-4.56-5.03v-2.51c4.36-.66,7.87-1.52,10.64-2.58v23.14c0,4.56.46,4.89,5.03,5.36v2.71h-16.07ZM238.3,359.64c-2.18,0-4.17-1.92-4.17-4.1,0-2.38,1.98-4.3,4.23-4.3s4.1,1.92,4.1,4.3c0,2.18-1.79,4.1-4.17,4.1Z"/><path class="cls-3" d="M260.91,384.9c-1.39,1.19-1.72,2.25-1.72,2.98,0,.99,1.06,2.45,4.17,2.45,2.91,0,5.88-.13,8.13-.13,4.96,0,10.58,1.72,10.58,8.07,0,7.54-8.6,13.16-18.05,13.16-8,0-12.76-4.56-12.76-8.46,0-1.92.79-2.98,2.05-4.1,1.52-1.39,3.7-2.78,4.83-3.57-2.45-.73-3.97-1.98-4.96-3.37-.73-1.06-.93-2.51-.86-3.11,2.18-1.19,4.69-3.5,5.95-5.02l2.64,1.12ZM264.94,385.63c-5.36,0-12.17-3.17-12.17-10.05,0-7.54,7.34-10.98,12.83-10.98,2.45,0,5.02.53,7.21,1.59,3.77,0,7.54-.46,9.72-.86l.46.66c-.6.99-2.12,3.44-3.17,3.97-.93-.07-2.91-.26-3.9-.33,1.06,1.39,1.85,3.11,1.85,5.49,0,6.88-6.08,10.51-12.83,10.51ZM266.99,395.54c-3.97,0-4.76.2-5.88.86-2.98,1.72-3.9,3.57-3.9,5.29,0,3.31,3.44,6.02,9.26,6.02,6.35,0,10.12-3.17,10.12-7.14,0-2.05-1.12-3.5-2.84-4.17-1.85-.73-3.83-.86-6.74-.86ZM265.08,367.51c-2.91,0-5.82,2.51-5.82,7.41,0,4.56,2.71,7.74,6.28,7.74,3.24,0,5.82-2.31,5.82-7.41,0-4.63-2.58-7.74-6.28-7.74Z"/><path class="cls-3" d="M306.86,395.81v-2.71c3.77-.46,4.17-1.06,4.17-4.89v-11.57c0-4.76-2.18-7.27-6.15-7.27-2.71,0-5.22,1.32-7.67,3.44v15.41c0,4.43.33,4.43,4.56,4.89v2.71h-15.54v-2.71c4.76-.59,4.89-.86,4.89-4.89v-13.49c0-4.43-.53-4.69-4.3-5.16v-2.51c3.97-.59,7.47-1.39,10.38-2.58-.07,1.59,0,3.97,0,5.29,1.32-.99,2.91-2.05,4.56-3.04,1.92-1.19,3.9-2.12,5.95-2.12,5.49,0,9.39,4.03,9.39,10.71v12.89c0,4.1.4,4.36,4.69,4.89v2.71h-14.94Z"/><path class="cls-3" d="M371.05,395.81v-2.91c4.96-.46,5.03-1.12,4.17-3.37-.99-2.71-2.05-5.55-3.11-8.26h-15.4c-.73,1.98-1.59,4.3-2.38,6.61-1.32,3.9-.86,4.5,4.89,5.02v2.91h-17.19v-2.91c5.29-.66,5.75-.79,8.26-6.74l13.95-33.59,3.64-.73c4.5,11.57,8.99,22.81,13.49,34.31,2.18,5.55,2.91,6.21,8.33,6.74v2.91h-18.65ZM364.51,360.77c-1.85,5.16-4.36,11.31-6.41,16.66h12.69l-6.28-16.66Z"/><path class="cls-3" d="M393,395.81v-2.71c4.56-.4,5.16-.79,5.16-4.96v-29.69c0-4.3-.33-4.5-4.96-4.76v-2.78c4.03-.26,8.66-1.39,11.04-2.18v39.41c0,4.23.66,4.56,5.42,4.96v2.71h-16.66Z"/><path class="cls-3" d="M441.13,390.12c-4.89,5.35-10.05,6.48-12.63,6.48-8.46,0-14.02-6.88-14.02-15.54,0-4.63,1.79-8.53,4.36-11.44,3.11-3.44,6.74-5.03,10.84-5.03,6.94,0,11.7,5.55,11.7,12.1-.07,1.52-.2,2.25-1.46,2.45-3.24.53-11.37.86-19.31,1.12.4,7.67,5.49,11.04,10.12,11.04,3.17,0,6.41-1.39,8.93-3.5l1.45,2.31ZM428.3,367.84c-3.57,0-6.74,3.24-7.34,8.79,3.57,0,8-.07,11.97-.2,1.52-.07,1.85-.33,1.85-1.45,0-3.44-2.58-7.14-6.48-7.14ZM425.39,359.38l7.67-11.5c1.46-.26,6.21.79,6.94,1.26l.13.73-12.3,11.17-2.45-1.65Z"/><path class="cls-3" d="M486.55,395.81v-2.71c3.77-.4,4.69-.73,4.69-4.89v-11.37c0-4.83-2.31-7.47-5.95-7.47-2.71,0-5.22,1.45-7.8,3.5,0,.86.13,1.79.13,2.84v12.76c0,3.9.86,4.23,4.63,4.63v2.71h-15.67v-2.71c4.23-.4,5.03-.66,5.03-4.89v-11.37c0-4.96-2.38-7.47-5.95-7.47-2.45,0-5.03,1.39-7.6,3.5v15.34c0,4.17.66,4.5,3.83,4.89v2.71h-14.74v-2.71c4.69-.46,4.89-.79,4.89-4.89v-13.62c0-4.36-.46-4.5-4.3-5.02v-2.51c3.57-.46,7.21-1.32,10.31-2.58-.07,1.85,0,4.03,0,5.36,1.39-.99,2.78-2.05,5.22-3.5,1.46-.86,3.17-1.72,5.55-1.72,3.44,0,6.41,1.92,7.93,5.49,1.92-1.45,3.57-2.58,5.36-3.64,1.65-.99,3.57-1.85,5.88-1.85,5.55,0,9.26,3.77,9.26,10.84v12.76c0,4.1.66,4.5,4.76,4.89v2.78l-15.47-.07Z"/><path class="cls-3" d="M561.05,394.09c-1.45.26-7.14,1.12-11.7,2.51v-4.3c-1.06.59-3.24,1.85-4.36,2.45-2.51,1.32-4.69,1.85-5.29,1.85-5.75,0-13.49-5.36-13.49-15.07s8.53-16.93,18.45-16.93c.73,0,3.17.2,4.69.73v-7.54c0-3.77-.53-4.1-5.62-4.36v-2.71c2.98-.26,9.19-1.06,11.83-1.98-.07,1.52-.13,7.21-.13,11.77v26.71c0,3.5.73,3.83,3.37,3.97l2.25.13v2.78ZM549.35,371.21c-1.79-2.18-4.5-3.11-7.34-3.11-2.38,0-8.99,1.79-8.99,11.7,0,8.4,5.49,11.97,9.46,11.97,2.18.07,5.09-1.19,6.88-2.45v-18.12Z"/><path class="cls-3" d="M588.82,396.6c-1.06,0-2.38-.66-3.11-1.26-1.06-.99-1.52-2.12-1.85-3.17-2.98,2.05-6.41,4.43-9.06,4.43-4.76,0-8.73-4.03-8.73-8.99,0-3.37,1.92-5.95,6.02-7.21,4.69-1.45,10.25-3.31,11.44-4.3v-1.19c0-4.56-2.65-6.68-5.82-6.68-1.46,0-2.64.53-3.44,1.32-.93.93-1.26,2.45-1.92,4.3-.4,1.19-1.19,1.72-2.38,1.72-1.39,0-3.37-1.46-3.37-3.24,0-1.19.99-2.05,2.38-3.04,1.92-1.19,6.48-3.77,10.58-4.69,2.18,0,4.56.73,6.28,2.05,2.64,2.05,3.57,4.96,3.57,8v12.69c0,3.11,1.12,4.03,2.38,4.03.73,0,1.72-.4,2.71-.79l.93,2.58-6.61,3.44ZM583.53,379.21c-1.72.86-4.83,2.05-7.01,2.91-2.05.86-3.83,2.12-3.83,4.83,0,3.5,2.78,4.89,4.69,4.89s3.9-.73,6.15-2.58v-10.05Z"/><path class="cls-3" d="M617.84,374.25c-1.45-4.56-3.64-6.68-7.01-6.68-2.71,0-4.76,1.45-4.76,4.17,0,2.51,1.92,3.83,6.41,5.55,5.95,2.25,9.39,4.63,9.39,9.59,0,6.15-5.88,9.72-12.23,9.72-3.57,0-7.07-1.12-8.53-1.92-.53-1.65-1.39-6.88-1.52-8.4l2.91-.66c1.59,5.02,4.43,7.87,8.4,7.87,2.98,0,5.09-1.59,5.09-4.36s-1.92-4.36-5.82-5.88c-5.42-2.12-9.52-4.36-9.52-9.59s4.03-9.06,11.31-9.06c3.11,0,5.82.59,7.27.93.53,2.45,1.19,6.68,1.46,8l-2.84.73Z"/><path class="cls-3" d="M696.78,355.74c-4.03.2-5.95.99-6.35,3.5-.26,2.05-.4,5.22-.4,11.7v25.32h-3.77l-28.5-33.46v14.81c0,5.75.13,9.06.33,11.04.4,3.17,2.25,4.03,7.14,4.23v2.91h-18.31v-2.91c4.23-.2,5.95-1.12,6.35-3.97.33-2.31.4-5.55.4-11.31v-13.49c0-4.76-.13-4.63-1.26-6.15-1.26-1.52-3.24-2.05-6.28-2.25v-2.91h11.37l28.43,32.2v-14.08c0-6.48-.2-9.59-.46-11.37-.33-2.84-2.31-3.57-7.27-3.83v-2.91h18.58v2.91Z"/><path class="cls-3" d="M735.05,394.22c-3.7.46-7.4,1.39-11.57,2.38.07-1.59.13-3.37.13-5.02-3.7,2.78-6.41,5.02-10.58,5.02-4.76,0-8.99-2.91-8.99-10.84v-12.03c0-3.97-.46-4.23-2.58-4.69l-1.98-.4v-2.51c3.57-.2,7.21-.53,10.84-1.12-.26,2.51-.26,6.55-.26,9.98v9.32c0,5.62,3.17,7.34,6.21,7.34,2.58,0,4.83-.99,7.34-3.24v-14.68c0-4.03-.46-4.3-2.91-4.69l-2.78-.4v-2.51c3.83-.13,7.8-.4,11.7-1.12v22.35c0,3.64.66,4.1,3.44,4.17h1.98v2.71Z"/><path class="cls-3" d="M771.88,368.11c-3.9.4-4.56,1.06-6.21,4.56-2.38,5.02-7.27,16.93-10.05,23.74h-2.84c-1.85-4.83-6.41-16.07-9.79-23.74-1.52-3.64-2.51-4.1-6.02-4.56v-2.71h15.21v2.71c-3.83.33-4.1.66-2.91,3.64,1.65,3.97,4.89,12.3,6.48,16,2.05-4.63,4.69-11.7,6.15-15.47,1.26-3.31.53-3.7-3.17-4.17v-2.71h13.16v2.71Z"/><path class="cls-3" d="M801.49,390.12c-4.89,5.35-10.05,6.48-12.63,6.48-8.46,0-14.02-6.88-14.02-15.54,0-4.63,1.79-8.53,4.36-11.44,3.11-3.44,6.74-5.03,10.84-5.03,6.94,0,11.7,5.55,11.7,12.1-.07,1.52-.2,2.25-1.46,2.45-3.24.53-11.37.86-19.31,1.12.4,7.67,5.49,11.04,10.12,11.04,3.17,0,6.41-1.39,8.93-3.5l1.45,2.31ZM788.67,367.84c-3.57,0-6.74,3.24-7.34,8.79,3.57,0,8-.07,11.97-.2,1.52-.07,1.85-.33,1.85-1.45,0-3.44-2.58-7.14-6.48-7.14Z"/><path class="cls-3" d="M828.14,395.81v-2.71c3.77-.46,4.17-1.06,4.17-4.89v-11.57c0-4.76-2.18-7.27-6.15-7.27-2.71,0-5.22,1.32-7.67,3.44v15.41c0,4.43.33,4.43,4.56,4.89v2.71h-15.54v-2.71c4.76-.59,4.89-.86,4.89-4.89v-13.49c0-4.43-.53-4.69-4.3-5.16v-2.51c3.97-.59,7.47-1.39,10.38-2.58-.07,1.59,0,3.97,0,5.29,1.32-.99,2.91-2.05,4.56-3.04,1.92-1.19,3.9-2.12,5.95-2.12,5.49,0,9.39,4.03,9.39,10.71v12.89c0,4.1.4,4.36,4.69,4.89v2.71h-14.94Z"/><path class="cls-3" d="M866.81,374.25c-1.45-4.56-3.64-6.68-7.01-6.68-2.71,0-4.76,1.45-4.76,4.17,0,2.51,1.92,3.83,6.41,5.55,5.95,2.25,9.39,4.63,9.39,9.59,0,6.15-5.88,9.72-12.23,9.72-3.57,0-7.07-1.12-8.53-1.92-.53-1.65-1.39-6.88-1.52-8.4l2.91-.66c1.59,5.02,4.43,7.87,8.4,7.87,2.98,0,5.09-1.59,5.09-4.36s-1.92-4.36-5.82-5.88c-5.42-2.12-9.52-4.36-9.52-9.59s4.03-9.06,11.31-9.06c3.11,0,5.82.59,7.27.93.53,2.45,1.19,6.68,1.46,8l-2.84.73Z"/></g></svg>