<svg width="267" height="47" viewBox="0 0 267 47" fill="none" xmlns="http://www.w3.org/2000/svg">
<path d="M111.484 6.70059H118.222L122.184 17.9355L126.077 6.70059H132.763L125.012 30.1413H119.321L111.484 6.70059Z" fill="#003F72"/>
<path d="M134.298 27.6296V9.2275C134.298 8.69791 134.565 8.1431 135.102 7.56559C135.636 6.98808 136.167 6.70059 136.691 6.70059H149.121C149.645 6.70059 150.176 6.98808 150.718 7.56559C151.26 8.1431 151.529 8.69791 151.529 9.2275V27.6296C151.529 28.1617 151.26 28.7114 150.718 29.2839C150.176 29.8564 149.645 30.1413 149.121 30.1413H136.691C136.167 30.1413 135.639 29.8564 135.102 29.2839C134.565 28.7114 134.298 28.1617 134.298 27.6296ZM140.409 23.7509C140.409 24.3385 140.671 24.7672 141.195 25.032C141.719 25.2968 142.301 25.4305 142.942 25.4305C143.313 25.4305 143.672 25.3876 144.015 25.3019C144.358 25.2161 144.676 25.0371 144.966 24.7647C145.256 24.4949 145.403 24.1569 145.403 23.7509V13.086C145.403 12.6825 145.258 12.347 144.966 12.0823C144.676 11.8175 144.358 11.6409 144.015 11.5552C143.672 11.4694 143.313 11.4266 142.942 11.4266C142.291 11.4266 141.706 11.5552 141.187 11.8149C140.668 12.0747 140.412 12.4984 140.412 13.0885V23.7534L140.409 23.7509Z" fill="#003F72"/>
<path d="M154.164 30.1388V6.70059H165.126L168.198 12.1352H160.134V16.1349H166.418V21.1736H160.134V25.0346H168.061V30.1413H154.166L154.164 30.1388Z" fill="#003F72"/>
<path d="M182.199 30.1388L187.575 10.612L185.063 6.70059H197.754L204.16 30.1413H198.225L196.829 25.2413H189.533L188.137 30.1413H182.202L182.199 30.1388ZM191.102 19.4764H195.257L193.179 11.8755L191.102 19.4764Z" fill="#003F72"/>
<path d="M205.538 11.3913L207.931 6.70059H216.694V24.2881H222.733V30.1388H209.797V11.3913H205.538Z" fill="#003F72"/>
<path d="M224.233 6.70059H242.998L245.65 11.0634H238.179V30.1413H232.017V10.9928H227.026L224.233 6.70059Z" fill="#003F72"/>
<path d="M248.287 27.6296V9.2275C248.287 8.69791 248.554 8.1431 249.09 7.56559C249.624 6.98808 250.156 6.70059 250.68 6.70059H263.109C263.633 6.70059 264.165 6.98808 264.706 7.56559C265.248 8.1431 265.518 8.69791 265.518 9.2275V27.6296C265.518 28.1617 265.248 28.7114 264.706 29.2839C264.165 29.8564 263.633 30.1413 263.109 30.1413H250.68C250.156 30.1413 249.627 29.8564 249.09 29.2839C248.554 28.7114 248.287 28.1617 248.287 27.6296ZM254.397 23.7509C254.397 24.3385 254.659 24.7672 255.183 25.032C255.707 25.2968 256.289 25.4305 256.93 25.4305C257.301 25.4305 257.66 25.3876 258.003 25.3019C258.346 25.2161 258.664 25.0371 258.954 24.7647C259.244 24.4949 259.392 24.1569 259.392 23.7509V13.086C259.392 12.6825 259.247 12.347 258.954 12.0823C258.664 11.8175 258.346 11.6409 258.003 11.5552C257.66 11.4694 257.301 11.4266 256.93 11.4266C256.279 11.4266 255.694 11.5552 255.175 11.8149C254.657 12.0747 254.4 12.4984 254.4 13.0885V23.7534L254.397 23.7509Z" fill="#003F72"/>
<path d="M68.6941 7.16965L56.8797 18.8862H56.8492L55.6362 12.5084L57.6121 11.2652H49.6401L49.0603 12.9372H46.6649L46.1817 15.7692L47.3464 15.0202H48.806L47.9745 18.8282L36.2567 7.20748L0 43.0003C5.15447 43.255 8.41956 40.0169 8.41956 40.0169L33.4646 15.0933L36.1703 17.7766L10.7565 43.0003C14.7946 43.0003 18.403 40.5919 18.403 40.5919L38.8302 20.4145L41.5358 23.0977L21.4087 42.9978C25.8766 42.9978 29.485 40.249 29.485 40.249L44.2796 25.8188L46.8988 28.4164L31.977 42.9978C36.1881 42.6775 39.9974 40.4204 39.9974 40.4204L49.4493 31.3367L43.9897 42.9978H60.7449L55.4633 31.4729L64.7729 40.4204C64.7729 40.4204 68.5822 42.6775 72.7932 42.9978L57.724 28.2701L60.3431 25.6726L75.2853 40.249C75.2853 40.249 78.8936 42.9978 83.3615 42.9978L63.0869 22.9515L65.7926 20.2682L86.3672 40.5894C86.3672 40.5894 89.9756 42.9978 94.0138 42.9978L68.4525 17.6278L71.1836 14.9193C71.1836 14.9193 91.3742 34.9429 95.542 39.0763C99.7099 43.2096 104.864 43.0381 104.864 43.0381L68.6941 7.16965Z" fill="#F40000"/>
<path d="M133.914 35.9618C135.44 35.9618 136.353 36.2568 137.068 36.91C137.617 37.4119 138.044 38.1735 138.044 39.273C138.044 40.5138 137.452 41.6032 136.529 42.2362C135.649 42.8465 134.804 43.0432 133.322 43.0432H130.51V42.564C131.519 42.4985 131.575 42.4657 131.575 41.5402V37.4774C131.575 36.562 131.499 36.4964 130.51 36.4435V35.9643H133.914V35.9618ZM132.696 41.3435C132.696 42.1177 132.981 42.4884 133.981 42.4884C136.025 42.4884 136.793 41.0938 136.793 39.4495C136.793 38.4357 136.409 37.4774 135.628 36.9882C135.089 36.6175 134.596 36.4989 133.795 36.4989C133.147 36.4989 132.928 36.5872 132.852 36.6957C132.752 36.8041 132.699 36.9352 132.699 37.2631V41.3485L132.696 41.3435Z" fill="#134374"/>
<path d="M143.682 42.1076C142.868 42.9902 142.011 43.1743 141.584 43.1743C140.178 43.1743 139.255 42.042 139.255 40.6146C139.255 39.853 139.552 39.21 139.979 38.7308C140.496 38.1634 141.101 37.9036 141.78 37.9036C142.934 37.9036 143.725 38.8191 143.725 39.8984C143.715 40.1481 143.692 40.2691 143.483 40.3019C142.944 40.3902 141.594 40.4431 140.277 40.486C140.343 41.7495 141.187 42.3043 141.958 42.3043C142.484 42.3043 143.023 42.0748 143.44 41.7268L143.682 42.1076ZM141.551 38.4357C140.958 38.4357 140.429 38.9704 140.333 39.8858C140.925 39.8858 141.663 39.8757 142.321 39.853C142.573 39.8429 142.629 39.7975 142.629 39.6134C142.629 39.046 142.202 38.4357 141.553 38.4357H141.551Z" fill="#134374"/>
<path d="M147.824 39.4924C147.583 38.7409 147.219 38.3929 146.66 38.3929C146.209 38.3929 145.869 38.6324 145.869 39.0788C145.869 39.4924 146.187 39.7093 146.934 39.9942C147.923 40.365 148.493 40.7559 148.493 41.5729C148.493 42.5867 147.516 43.1743 146.461 43.1743C145.869 43.1743 145.286 42.9902 145.045 42.8591C144.958 42.5867 144.813 41.7268 144.793 41.4746L145.276 41.3661C145.541 42.1933 146.011 42.6624 146.672 42.6624C147.166 42.6624 147.519 42.4001 147.519 41.9437C147.519 41.4872 147.201 41.2249 146.553 40.9753C145.653 40.6272 144.971 40.2565 144.971 39.3966C144.971 38.5366 145.64 37.9036 146.85 37.9036C147.366 37.9036 147.817 38.002 148.058 38.0575C148.147 38.461 148.256 39.157 148.3 39.3764L147.827 39.4974L147.824 39.4924Z" fill="#134374"/>
<path d="M149.492 43.0432V42.5968C150.24 42.5313 150.316 42.4783 150.316 41.7142V39.5681C150.316 38.8821 150.306 38.8165 149.558 38.7409V38.3273C150.283 38.2189 150.866 38.0776 151.326 37.9011V41.7142C151.326 42.4657 151.402 42.5212 152.16 42.5968V43.0432H149.49H149.492ZM150.736 37.084C150.372 37.084 150.044 36.7688 150.044 36.4082C150.044 36.0173 150.375 35.6995 150.746 35.6995C151.117 35.6995 151.427 36.0148 151.427 36.4082C151.427 36.7688 151.13 37.084 150.736 37.084Z" fill="#134374"/>
<path d="M154.492 41.2451C154.26 41.4418 154.207 41.6158 154.207 41.7343C154.207 41.8983 154.382 42.1378 154.899 42.1378C155.382 42.1378 155.875 42.1151 156.249 42.1151C157.073 42.1151 158.006 42.3976 158.006 43.4442C158.006 44.6849 156.577 45.613 155.008 45.613C153.678 45.613 152.887 44.8614 152.887 44.2184C152.887 43.9031 153.019 43.7291 153.228 43.5425C153.48 43.313 153.843 43.086 154.029 42.9549C153.622 42.8364 153.37 42.6271 153.205 42.4001C153.085 42.2261 153.052 41.9865 153.063 41.8882C153.426 41.6915 153.843 41.3107 154.052 41.061L154.492 41.2451ZM155.163 41.3661C154.273 41.3661 153.141 40.8441 153.141 39.7093C153.141 38.4685 154.359 37.9011 155.272 37.9011C155.679 37.9011 156.106 37.9894 156.47 38.1634C157.096 38.1634 157.721 38.0877 158.085 38.0221L158.161 38.1306C158.062 38.2945 157.81 38.698 157.635 38.7837C157.48 38.7737 157.152 38.7409 156.986 38.7283C157.162 38.9578 157.294 39.2402 157.294 39.6336C157.294 40.7659 156.284 41.3661 155.163 41.3661ZM155.501 43.0003C154.843 43.0003 154.71 43.0331 154.525 43.1415C154.031 43.424 153.876 43.7291 153.876 44.0141C153.876 44.5588 154.448 45.0052 155.415 45.0052C156.47 45.0052 157.096 44.4832 157.096 43.8275C157.096 43.4895 156.91 43.25 156.623 43.1415C156.315 43.023 155.984 43.0003 155.501 43.0003ZM155.183 38.3802C154.7 38.3802 154.217 38.7938 154.217 39.6008C154.217 40.3523 154.667 40.8744 155.26 40.8744C155.799 40.8744 156.226 40.4936 156.226 39.6538C156.226 38.8922 155.796 38.3802 155.183 38.3802Z" fill="#134374"/>
<path d="M162.128 43.0432V42.5968C162.754 42.5212 162.82 42.4228 162.82 41.7898V39.8833C162.82 39.099 162.459 38.6854 161.797 38.6854C161.347 38.6854 160.93 38.9023 160.523 39.2528V41.7923C160.523 42.5212 160.579 42.5212 161.281 42.5993V43.0457H158.7V42.5993C159.491 42.501 159.514 42.4581 159.514 41.7923V39.5706C159.514 38.8418 159.425 38.7964 158.799 38.7207V38.3071C159.458 38.2088 160.04 38.0776 160.523 37.8835C160.513 38.1457 160.523 38.5366 160.523 38.756C160.742 38.5921 161.007 38.4181 161.281 38.2542C161.599 38.0575 161.93 37.9061 162.27 37.9061C163.181 37.9061 163.829 38.5719 163.829 39.6715V41.7949C163.829 42.4707 163.895 42.5136 164.61 42.6019V43.0482H162.128V43.0432Z" fill="#134374"/>
<path d="M172.796 43.0432V42.564C173.619 42.4884 173.63 42.38 173.487 42.0092C173.322 41.5629 173.146 41.0938 172.971 40.6474H170.41C170.291 40.9753 170.146 41.3561 170.016 41.7369C169.797 42.38 169.874 42.4783 170.83 42.564V43.0432H167.974V42.564C168.854 42.4556 168.93 42.4329 169.347 41.4519L171.666 35.9189L172.272 35.7979C173.019 37.7044 173.767 39.5555 174.512 41.4519C174.873 42.3673 174.995 42.4758 175.895 42.564V43.0432H172.798H172.796ZM171.707 37.2707C171.399 38.1205 170.982 39.1343 170.642 40.017H172.75L171.707 37.2707Z" fill="#134374"/>
<path d="M176.442 43.0432V42.5968C177.2 42.5312 177.299 42.4657 177.299 41.7797V36.8873C177.299 36.1787 177.243 36.1459 176.475 36.103V35.6465C177.146 35.6037 177.914 35.4171 178.309 35.2859V41.7797C178.309 42.4758 178.418 42.5312 179.209 42.5968V43.0432H176.44H176.442Z" fill="#134374"/>
<path d="M184.44 42.1076C183.626 42.9902 182.769 43.1743 182.342 43.1743C180.935 43.1743 180.012 42.042 180.012 40.6146C180.012 39.853 180.31 39.2099 180.737 38.7308C181.253 38.1634 181.858 37.9036 182.537 37.9036C183.692 37.9036 184.483 38.8191 184.483 39.8984C184.473 40.1481 184.45 40.2691 184.241 40.3019C183.702 40.3902 182.352 40.4431 181.035 40.486C181.101 41.7495 181.947 42.3043 182.715 42.3043C183.242 42.3043 183.781 42.0748 184.198 41.7268L184.44 42.1076ZM182.309 38.4357C181.716 38.4357 181.187 38.9704 181.091 39.8858C181.683 39.8858 182.42 39.8757 183.079 39.853C183.331 39.8429 183.387 39.7975 183.387 39.6134C183.387 39.046 182.96 38.4357 182.311 38.4357H182.309ZM181.825 37.0411L183.099 35.1447C183.341 35.1018 184.132 35.2758 184.254 35.3515L184.277 35.47L182.235 37.311L181.828 37.0386L181.825 37.0411Z" fill="#134374"/>
<path d="M191.987 43.0432V42.5968C192.612 42.5312 192.767 42.4783 192.767 41.7898V39.9161C192.767 39.1217 192.384 38.6854 191.778 38.6854C191.328 38.6854 190.911 38.925 190.481 39.2629C190.481 39.4041 190.504 39.558 190.504 39.732V41.8352C190.504 42.4783 190.647 42.5312 191.272 42.5968V43.0432H188.668V42.5968C189.37 42.5312 189.502 42.4884 189.502 41.7898V39.9161C189.502 39.099 189.108 38.6854 188.513 38.6854C188.106 38.6854 187.679 38.9149 187.249 39.2629V41.7898C187.249 42.4758 187.359 42.5312 187.888 42.5968V43.0432H185.439V42.5968C186.22 42.5212 186.253 42.4657 186.253 41.7898V39.5453C186.253 38.8266 186.176 38.8039 185.538 38.7182V38.3046C186.131 38.2289 186.736 38.0877 187.252 37.8809C187.242 38.1861 187.252 38.5442 187.252 38.7636C187.483 38.5997 187.712 38.4256 188.119 38.1861C188.361 38.0448 188.645 37.9036 189.042 37.9036C189.614 37.9036 190.108 38.2188 190.359 38.809C190.677 38.5694 190.952 38.3853 191.249 38.2088C191.524 38.0448 191.842 37.9036 192.226 37.9036C193.149 37.9036 193.764 38.524 193.764 39.6891V41.7923C193.764 42.4682 193.874 42.5338 194.555 42.5993V43.0558L191.984 43.0457L191.987 43.0432Z" fill="#134374"/>
<path d="M204.368 42.7607C204.127 42.8036 203.181 42.9448 202.423 43.1743V42.4657C202.247 42.564 201.884 42.7708 201.698 42.8692C201.281 43.0861 200.918 43.1743 200.818 43.1743C199.862 43.1743 198.578 42.2917 198.578 40.6903C198.578 39.0889 199.994 37.9011 201.642 37.9011C201.762 37.9011 202.169 37.9339 202.423 38.0222V36.7814C202.423 36.161 202.334 36.1055 201.49 36.0627V35.6163C201.983 35.5734 203.015 35.4423 203.455 35.2885C203.445 35.5381 203.432 36.4763 203.432 37.2278V41.6284C203.432 42.2059 203.552 42.2589 203.992 42.2816L204.366 42.3043V42.7607H204.368ZM202.425 38.9906C202.128 38.6299 201.678 38.4786 201.207 38.4786C200.813 38.4786 199.712 38.7737 199.712 40.4078C199.712 41.7923 200.625 42.3799 201.284 42.3799C201.647 42.39 202.13 42.1832 202.425 41.9764V38.9906Z" fill="#134374"/>
<path d="M208.984 43.1743C208.808 43.1743 208.589 43.0659 208.467 42.9675C208.292 42.8036 208.216 42.6195 208.16 42.4455C207.666 42.7834 207.094 43.1743 206.654 43.1743C205.863 43.1743 205.205 42.5111 205.205 41.6915C205.205 41.1367 205.523 40.7105 206.204 40.5037C206.985 40.2641 207.908 39.9589 208.104 39.795V39.5983C208.104 38.8468 207.664 38.4988 207.137 38.4988C206.896 38.4988 206.698 38.587 206.565 38.7157C206.41 38.867 206.357 39.1192 206.247 39.4243C206.181 39.621 206.049 39.7068 205.851 39.7068C205.619 39.7068 205.291 39.4672 205.291 39.1721C205.291 38.9754 205.457 38.8342 205.685 38.6703C206.003 38.4736 206.761 38.0499 207.443 37.8961C207.806 37.8961 208.2 38.0171 208.485 38.234C208.925 38.5719 209.078 39.0511 209.078 39.5529V41.6435C209.078 42.1555 209.263 42.3068 209.474 42.3068C209.594 42.3068 209.759 42.2412 209.924 42.1757L210.08 42.6019L208.981 43.1693L208.984 43.1743ZM208.104 40.3095C207.819 40.4507 207.303 40.6474 206.939 40.7886C206.598 40.9299 206.301 41.1367 206.301 41.583C206.301 42.1605 206.761 42.39 207.081 42.39C207.402 42.39 207.73 42.269 208.104 41.9663V40.3095Z" fill="#134374"/>
<path d="M213.805 39.4924C213.563 38.7409 213.2 38.3929 212.64 38.3929C212.19 38.3929 211.849 38.6324 211.849 39.0788C211.849 39.4924 212.167 39.7093 212.915 39.9942C213.904 40.365 214.474 40.7559 214.474 41.5729C214.474 42.5867 213.497 43.1743 212.442 43.1743C211.849 43.1743 211.267 42.9902 211.026 42.8591C210.939 42.5867 210.794 41.7268 210.774 41.4746L211.257 41.3661C211.521 42.1933 211.992 42.6624 212.653 42.6624C213.146 42.6624 213.5 42.4001 213.5 41.9437C213.5 41.4872 213.182 41.2249 212.533 40.9753C211.633 40.6272 210.952 40.2565 210.952 39.3966C210.952 38.5366 211.621 37.9036 212.831 37.9036C213.347 37.9036 213.797 38.002 214.039 38.0575C214.128 38.461 214.237 39.157 214.28 39.3764L213.807 39.4974L213.805 39.4924Z" fill="#134374"/>
<path d="M226.924 36.4409C226.255 36.4737 225.935 36.6049 225.868 37.0184C225.825 37.3564 225.802 37.8784 225.802 38.9477V43.1188H225.177L220.442 37.606V40.0472C220.442 40.9954 220.465 41.5401 220.498 41.8655C220.564 42.3875 220.872 42.5287 221.685 42.5615V43.0407H218.642V42.5615C219.343 42.5287 219.631 42.3774 219.697 41.9083C219.753 41.5275 219.763 40.9929 219.763 40.0447V37.8229C219.763 37.0386 219.74 37.0613 219.554 36.8091C219.346 36.5595 219.015 36.4712 218.512 36.4384V35.9593H220.401L225.126 41.2653V38.9451C225.126 37.8784 225.093 37.3665 225.05 37.0714C224.994 36.6023 224.666 36.4838 223.842 36.4384V35.9593H226.929V36.4384L226.924 36.4409Z" fill="#134374"/>
<path d="M233.284 42.7834C232.668 42.8591 232.053 43.0129 231.361 43.1769C231.371 42.9146 231.384 42.622 231.384 42.3497C230.769 42.8061 230.319 43.1769 229.627 43.1769C228.836 43.1769 228.132 42.6977 228.132 41.3914V39.4092C228.132 38.756 228.055 38.7132 227.704 38.635L227.374 38.5694V38.1558C227.966 38.123 228.572 38.0676 229.174 37.9717C229.131 38.3853 229.131 39.0511 229.131 39.616V41.1518C229.131 42.0773 229.657 42.3598 230.163 42.3598C230.591 42.3598 230.964 42.1959 231.382 41.8251V39.4067C231.382 38.7409 231.305 38.698 230.898 38.6325L230.438 38.5669V38.1533C231.076 38.1306 231.735 38.0877 232.383 37.9692V41.6511C232.383 42.2513 232.493 42.327 232.956 42.3371H233.286V42.7834H233.284Z" fill="#134374"/>
<path d="M239.404 38.4786C238.756 38.5442 238.647 38.6526 238.372 39.2301C237.978 40.0573 237.164 42.0193 236.701 43.1416H236.228C235.921 42.3472 235.163 40.4936 234.603 39.2301C234.352 38.6299 234.186 38.5543 233.604 38.4786V38.0323H236.132V38.4786C235.496 38.5341 235.45 38.5871 235.649 39.0788C235.923 39.732 236.462 41.1039 236.724 41.7142C237.065 40.9526 237.505 39.785 237.746 39.1646C237.955 38.6199 237.833 38.5543 237.22 38.4786V38.0323H239.407V38.4786H239.404Z" fill="#134374"/>
<path d="M244.325 42.1076C243.511 42.9902 242.654 43.1743 242.227 43.1743C240.821 43.1743 239.898 42.042 239.898 40.6146C239.898 39.853 240.195 39.21 240.622 38.7308C241.139 38.1634 241.744 37.9036 242.423 37.9036C243.577 37.9036 244.368 38.8191 244.368 39.8984C244.358 40.1481 244.335 40.2691 244.127 40.3019C243.587 40.3902 242.237 40.4431 240.92 40.486C240.986 41.7495 241.83 42.3043 242.601 42.3043C243.127 42.3043 243.666 42.0748 244.083 41.7268L244.325 42.1076ZM242.194 38.4357C241.601 38.4357 241.073 38.9704 240.976 39.8858C241.568 39.8858 242.306 39.8757 242.964 39.853C243.216 39.8429 243.272 39.7975 243.272 39.6134C243.272 39.046 242.845 38.4357 242.196 38.4357H242.194Z" fill="#134374"/>
<path d="M248.755 43.0432V42.5968C249.38 42.5212 249.446 42.4228 249.446 41.7898V39.8833C249.446 39.099 249.085 38.6854 248.424 38.6854C247.974 38.6854 247.557 38.9023 247.15 39.2528V41.7923C247.15 42.5212 247.206 42.5212 247.908 42.5993V43.0457H245.327V42.5993C246.118 42.501 246.141 42.4581 246.141 41.7923V39.5706C246.141 38.8418 246.052 38.7964 245.426 38.7207V38.3071C246.085 38.2088 246.667 38.0776 247.15 37.8835C247.14 38.1457 247.15 38.5366 247.15 38.756C247.369 38.5921 247.633 38.4181 247.908 38.2542C248.226 38.0575 248.556 37.9061 248.897 37.9061C249.807 37.9061 250.456 38.5719 250.456 39.6715V41.7949C250.456 42.4707 250.522 42.5136 251.237 42.6019V43.0482H248.755V43.0432Z" fill="#134374"/>
<path d="M255.181 39.4924C254.939 38.7409 254.575 38.3929 254.016 38.3929C253.566 38.3929 253.225 38.6324 253.225 39.0788C253.225 39.4924 253.543 39.7093 254.291 39.9942C255.28 40.365 255.849 40.7559 255.849 41.5729C255.849 42.5867 254.873 43.1743 253.818 43.1743C253.225 43.1743 252.643 42.9902 252.401 42.8591C252.315 42.5867 252.17 41.7268 252.149 41.4746L252.633 41.3661C252.897 42.1933 253.367 42.6624 254.029 42.6624C254.522 42.6624 254.875 42.4001 254.875 41.9437C254.875 41.4872 254.558 41.2249 253.909 40.9753C253.009 40.6272 252.327 40.2565 252.327 39.3966C252.327 38.5366 252.996 37.9036 254.207 37.9036C254.723 37.9036 255.173 38.002 255.415 38.0575C255.504 38.461 255.613 39.157 255.656 39.3764L255.183 39.4974L255.181 39.4924Z" fill="#134374"/>
</svg>
